<svg width="96" height="98" viewBox="0 0 96 98" fill="none" xmlns="http://www.w3.org/2000/svg">
<path fill-rule="evenodd" clip-rule="evenodd" d="M42.7654 0.152342C30.9003 2.54575 21.9211 10.2647 17.6929 21.7068C17.1872 23.0744 16.6097 26.5194 16.4092 29.3626L16.0448 34.5319L8.19876 34.6916C1.99557 34.8174 0.286608 35.0247 0.0343431 35.6807C-0.140346 36.1367 0.368782 38.583 1.16638 41.1154L2.61618 45.7207L29.4431 45.87L56.2694 46.0194L51.5843 48.4604L46.8999 50.9015H25.5206C8.66825 50.9015 4.19413 51.0537 4.39008 51.6195C4.52627 52.0147 5.26525 54.4684 6.03181 57.0731L7.42531 61.8088L16.5907 61.8117C21.7108 61.8134 25.5154 62.0317 25.2103 62.3057C24.9098 62.5762 21.5613 64.4159 17.7688 66.3946C13.9762 68.3733 10.7048 70.155 10.4985 70.3549C9.8181 71.0131 13.2906 81.0727 14.1267 80.8659C14.5496 80.7614 19.2915 78.3341 24.6644 75.4726C30.0372 72.6105 36.2433 69.305 38.4556 68.1264C40.668 66.9483 44.6761 64.8191 47.3625 63.3953C52.6147 60.6113 66.0922 53.4471 74.945 48.7327C77.9475 47.1336 83.3307 44.2911 86.9072 42.4158C95.0113 38.1671 96.4163 37.1407 95.9077 35.8403C95.5727 34.9828 94.4763 34.8295 87.6755 34.6916L79.8294 34.5319L79.4754 29.6498C78.2773 13.1222 65.6221 0.683061 49.3737 0.0610164C46.5293 -0.0481142 43.5555 -0.00675918 42.7654 0.152342ZM57.6106 13.5553C65.0986 17.5598 68.624 24.4798 68.624 35.1729V39.3905L66.3485 40.5513C65.0969 41.1895 63.9333 41.7116 63.7626 41.7116C63.5919 41.7116 63.4523 38.7467 63.4523 35.123C63.4523 29.4212 63.2684 28.1254 62.0875 25.5022C60.5015 21.9779 57.8674 19.1474 54.5759 17.4283C52.8072 16.5047 51.2103 16.2123 47.9371 16.2123C43.0102 16.2123 40.2698 17.3255 36.8978 20.6959C34.0344 23.558 32.8018 26.4557 32.5266 30.972L32.2887 34.8788L29.9131 34.7054L27.5376 34.5319L27.6703 30.563C27.9507 22.1749 33.8861 14.4944 42.1908 11.7747C42.9809 11.5163 45.9546 11.3727 48.7991 11.4565C53.4232 11.5927 54.3564 11.815 57.6106 13.5553ZM50.6822 28.2466C51.709 28.9651 51.9596 29.6969 51.9596 31.98V34.8191H47.9371H43.9147V31.98C43.9147 28.8192 45.1898 27.3523 47.9371 27.3523C48.7445 27.3523 49.98 27.7549 50.6822 28.2466ZM90.7475 45.9125C89.4833 46.6316 85.0873 48.9883 80.9787 51.1491C76.87 53.3099 71.9569 55.9158 70.0606 56.9405C68.1643 57.9651 57.433 63.6606 46.2132 69.5979C11.9098 87.7486 15.4576 85.6573 15.5576 87.6699C15.7121 90.7922 18.3693 95.3441 20.8505 96.7381C23.068 97.9833 23.4191 98 47.9371 98C72.4551 98 72.8062 97.9833 75.0237 96.7381C77.3418 95.436 79.9254 91.2322 80.2489 88.2357L80.4041 86.7997L58.8552 86.6251L37.3064 86.4505L42.1034 84.1841L46.8999 81.9176H64.5901H82.2797L83.7841 77.0952C84.6115 74.4427 85.2885 71.858 85.2885 71.3515C85.2885 70.5496 84.2277 70.429 77.0999 70.4227L68.9113 70.4152L72.9338 68.1964C75.1461 66.9765 79.6714 64.5377 82.9899 62.7772L89.0236 59.5763L91.1762 52.7975C92.3605 49.0698 93.2656 45.7012 93.1874 45.3123C93.0897 44.8241 92.3341 45.0096 90.7475 45.9125Z" fill="black"/>
</svg>
